<?xml version="1.0" encoding="utf-8"?>
<!-- Generator: Adobe Illustrator 24.1.2, SVG Export Plug-In . SVG Version: 6.00 Build 0)  -->
<svg version="1.1" id="Layer_1" xmlns="http://www.w3.org/2000/svg" xmlns:xlink="http://www.w3.org/1999/xlink" x="0px" y="0px"
	 viewBox="0 0 200 200" style="enable-background:new 0 0 200 200;" xml:space="preserve">
<style type="text/css">
	.st0{fill:url(#SVGID_1_);stroke:#0D0C17;stroke-width:2;stroke-miterlimit:10;}
</style>
<radialGradient id="SVGID_1_" cx="51.3487" cy="56.5378" r="53.4685" gradientTransform="matrix(1.9475 0 0 1.7686 0 1.000000e-02)" gradientUnits="userSpaceOnUse">
	<stop  offset="0" style="stop-color:#F7CA3C"/>
	<stop  offset="1" style="stop-color:#FBDE34"/>
</radialGradient>
<path class="st0" d="M183.4,199H16.6C8,199,1,192,1,183.4V16.6C1,8,8,1,16.6,1h166.7C192,1,199,8,199,16.6v166.7
	C199,192,192,199,183.4,199z"/>
<g>
	<path d="M87.1,102.9H49.9v24h41.6v18.7H27V44.6h62.3v18.7H49.9v21.1h37.2V102.9z"/>
	<path d="M107.8,122.1c6.1,3.2,15.6,6.3,25.3,6.3c10.5,0,16.1-4.4,16.1-11c0-6.2-4.8-9.9-16.9-14.1c-16.9-6-27.9-15.2-27.9-29.9
		c0-17.2,14.5-30.3,38.2-30.3c11.5,0,19.9,2.3,25.8,5.1l-5.1,18.3c-4-1.9-11.3-4.8-21.1-4.8c-10,0-14.7,4.6-14.7,9.8
		c0,6.4,5.6,9.3,18.7,14.2c17.9,6.7,26.2,16,26.2,30.3c0,16.9-12.9,31.4-40.8,31.4c-11.5,0-22.9-3.1-28.6-6.3L107.8,122.1z"/>
</g>
<g>
	<path d="M88.3,185.2c0-1.8,1.2-3.2,3-3.2c1.8,0,2.9,1.3,3,3.2c0,1.8-1.2,3.1-3,3.1C89.5,188.4,88.2,187,88.3,185.2z"/>
	<path d="M99.6,170.2c0-2.5-0.1-4.5-0.2-6.5h3.9l0.2,4h0.1c1.2-2.3,4-4.5,8-4.5c3.3,0,8.5,2,8.5,10.3v14.4h-4.4v-13.9
		c0-3.9-1.5-7.2-5.6-7.2c-2.9,0-5.1,2.1-5.9,4.5c-0.2,0.5-0.3,1.3-0.3,2v14.6h-4.4V170.2z"/>
	<path d="M129.9,176.5c0.1,5.9,3.9,8.4,8.3,8.4c3.1,0,5.1-0.6,6.7-1.2l0.8,3.1c-1.5,0.7-4.2,1.5-8.1,1.5c-7.4,0-11.9-5-11.9-12.2
		c0-7.3,4.3-13.1,11.4-13.1c7.9,0,10,6.9,10,11.4c0,0.9-0.1,1.6-0.1,2.1H129.9z M142.7,173.3c0-2.8-1.1-7.1-6.1-7.1
		c-4.5,0-6.4,4.1-6.8,7.1H142.7z"/>
	<path d="M154.3,163.6l3.5,5.2c0.9,1.4,1.7,2.6,2.5,3.9h0.1c0.8-1.4,1.6-2.7,2.4-4l3.4-5.1h4.8l-8.3,11.7l8.5,12.5h-5l-3.6-5.4
		c-0.9-1.4-1.7-2.8-2.6-4.2h-0.1c-0.8,1.5-1.6,2.7-2.6,4.2l-3.5,5.4H149l8.6-12.3l-8.2-11.8H154.3z"/>
	<path d="M181.4,156.7v7h6.3v3.3h-6.3v13c0,3,0.9,4.7,3.3,4.7c1.1,0,2-0.1,2.5-0.3l0.2,3.3c-0.9,0.3-2.2,0.6-3.9,0.6
		c-2,0-3.7-0.7-4.7-1.9c-1.2-1.3-1.7-3.5-1.7-6.3V167h-3.7v-3.3h3.7v-5.8L181.4,156.7z"/>
</g>
</svg>
